<svg width="42" height="40" viewBox="0 0 42 40" fill="none" xmlns="http://www.w3.org/2000/svg">
<path fill-rule="evenodd" clip-rule="evenodd" d="M9 22.2315C8.6558 22.7822 8.2543 23.3179 7.7861 23.7861C7.3179 24.2543 6.7822 24.6558 6.2315 25C6.7822 25.3442 7.3179 25.7457 7.7861 26.2139C8.2543 26.6821 8.6558 27.2178 9 27.7685C9.3442 27.2178 9.7457 26.6821 10.2139 26.2139C10.6821 25.7457 11.2178 25.3442 11.7685 25C11.2178 24.6558 10.6821 24.2543 10.2139 23.7861C9.7457 23.3179 9.3442 22.7822 9 22.2315ZM7.4106 18.7753C6.9405 19.93 6.3648 20.9989 5.6818 21.6818C4.9989 22.3648 3.93 22.9405 2.77534 23.4106C2.63886 23.4662 2.50119 23.5202 2.36281 23.5729C1.90883 23.7455 1.44728 23.9023 0.99566 24.0433C0.82263 24.0974 0.65105 24.1491 0.48192 24.1985C-0.16064 24.3863 -0.16064 25.6138 0.48192 25.8015C0.65105 25.8509 0.82263 25.9027 0.99566 25.9567C1.44728 26.0977 1.90883 26.2545 2.36281 26.4271C2.50119 26.4798 2.63886 26.5338 2.77534 26.5894C3.93 27.0595 4.9989 27.6352 5.6818 28.3182C6.3648 29.0011 6.9405 30.07 7.4106 31.2247C7.4662 31.3611 7.5202 31.4988 7.5729 31.6372C7.7455 32.0912 7.9023 32.5527 8.0433 33.0043C8.0974 33.1774 8.1491 33.349 8.1985 33.5181C8.3863 34.1606 9.6138 34.1606 9.8015 33.5181C9.8509 33.349 9.9027 33.1774 9.9567 33.0043C10.0977 32.5527 10.2545 32.0912 10.4271 31.6372C10.4798 31.4988 10.5338 31.3611 10.5894 31.2247C11.0595 30.07 11.6352 29.0011 12.3182 28.3182C13.0011 27.6352 14.07 27.0595 15.2247 26.5894C15.3611 26.5338 15.4988 26.4798 15.6372 26.4271C16.0912 26.2545 16.5527 26.0977 17.0043 25.9567C17.1774 25.9027 17.349 25.8509 17.5181 25.8015C18.1606 25.6137 18.1606 24.3862 17.5181 24.1985C17.349 24.1491 17.1774 24.0974 17.0043 24.0433C16.5527 23.9023 16.0912 23.7455 15.6372 23.5729C15.4988 23.5202 15.3611 23.4662 15.2247 23.4106C14.07 22.9405 13.0011 22.3648 12.3182 21.6818C11.6352 20.9989 11.0595 19.93 10.5894 18.7753C10.5338 18.6389 10.4798 18.5012 10.4271 18.3628C10.2545 17.9088 10.0977 17.4473 9.9567 16.9957C9.9027 16.8226 9.8509 16.651 9.8015 16.4819C9.6138 15.8394 8.3863 15.8394 8.1985 16.4819C8.1491 16.651 8.0974 16.8226 8.0433 16.9957C7.9023 17.4473 7.7455 17.9088 7.5729 18.3628C7.5202 18.5012 7.4662 18.6389 7.4106 18.7753Z" fill="#3F8AE0"/>
<path fill-rule="evenodd" clip-rule="evenodd" d="M29 7.2164C28.3997 8.4468 27.6359 9.6934 26.6647 10.6647C25.6934 11.6359 24.4468 12.3997 23.2164 13C24.4468 13.6003 25.6934 14.3641 26.6647 15.3353C27.6359 16.3066 28.3997 17.5532 29 18.7836C29.6003 17.5532 30.3641 16.3066 31.3353 15.3353C32.3066 14.3641 33.5532 13.6003 34.7836 13C33.5532 12.3997 32.3066 11.6359 31.3353 10.6647C30.3641 9.6934 29.6003 8.4468 29 7.2164ZM27.4243 3.1489C26.7113 5.233 25.7537 7.339 24.5464 8.5464C23.339 9.7537 21.233 10.7113 19.1489 11.4243C18.928 11.4999 18.7073 11.5727 18.488 11.6428C17.9591 11.8118 17.4381 11.9649 16.9402 12.1021C16.7901 12.1435 16.6422 12.1834 16.4967 12.2219C15.8344 12.3971 15.8344 13.6029 16.4967 13.7781C16.6422 13.8166 16.7901 13.8565 16.9402 13.8979C17.4381 14.0351 17.9591 14.1882 18.488 14.3572C18.7073 14.4273 18.928 14.5001 19.1489 14.5757C21.233 15.2887 23.339 16.2463 24.5464 17.4536C25.7537 18.661 26.7113 20.767 27.4243 22.8511C27.4999 23.072 27.5727 23.2927 27.6428 23.512C27.8118 24.0409 27.9649 24.5619 28.1021 25.0598C28.1435 25.2099 28.1834 25.3578 28.2219 25.5033C28.3971 26.1656 29.6029 26.1656 29.7781 25.5033C29.8166 25.3578 29.8565 25.2099 29.8979 25.0598C30.0351 24.5619 30.1882 24.0409 30.3572 23.512C30.4273 23.2927 30.5001 23.072 30.5757 22.8511C31.2887 20.767 32.2463 18.661 33.4536 17.4536C34.661 16.2463 36.767 15.2887 38.8511 14.5757C39.072 14.5001 39.2927 14.4273 39.512 14.3572C40.0409 14.1882 40.5619 14.0351 41.0598 13.8979C41.2099 13.8565 41.3578 13.8166 41.5033 13.7781C42.1656 13.6029 42.1656 12.3971 41.5033 12.2219C41.3578 12.1834 41.2099 12.1435 41.0598 12.1021C40.5619 11.9649 40.0409 11.8118 39.512 11.6428C39.2927 11.5727 39.072 11.4999 38.8511 11.4243C36.767 10.7113 34.661 9.7537 33.4536 8.5464C32.2463 7.339 31.2887 5.233 30.5757 3.1489C30.5001 2.928 30.4273 2.7073 30.3572 2.488C30.1882 1.95912 30.0351 1.43806 29.8979 0.94017C29.8565 0.79011 29.8166 0.64216 29.7781 0.49674C29.6029 -0.16558 28.3971 -0.16558 28.2219 0.49674C28.1834 0.64216 28.1435 0.79011 28.1021 0.94017C27.9649 1.43806 27.8118 1.95912 27.6428 2.488C27.5727 2.7073 27.4999 2.928 27.4243 3.1489Z" fill="#3F8AE0"/>
<path d="M24.6052 30.4362C24.4113 29.8546 23.5887 29.8546 23.3948 30.4362L22.7414 32.3965C22.5297 33.0315 22.0315 33.5297 21.3965 33.7414L19.4362 34.3948C18.8546 34.5887 18.8546 35.4113 19.4362 35.6052L21.3965 36.2586C22.0315 36.4703 22.5297 36.9685 22.7414 37.6035L23.3948 39.5638C23.5887 40.1454 24.4113 40.1454 24.6052 39.5638L25.2586 37.6035C25.4703 36.9685 25.9686 36.4703 26.6035 36.2586L28.5638 35.6052C29.1454 35.4113 29.1454 34.5887 28.5638 34.3948L26.6035 33.7414C25.9686 33.5297 25.4703 33.0315 25.2586 32.3965L24.6052 30.4362Z" fill="#3F8AE0"/>
</svg>
